<?xml version="1.0" encoding="UTF-8" standalone="no"?>
<svg
   xmlns:dc="http://purl.org/dc/elements/1.1/"
   xmlns:cc="http://creativecommons.org/ns#"
   xmlns:rdf="http://www.w3.org/1999/02/22-rdf-syntax-ns#"
   xmlns:svg="http://www.w3.org/2000/svg"
   xmlns="http://www.w3.org/2000/svg"
   xmlns:sodipodi="http://sodipodi.sourceforge.net/DTD/sodipodi-0.dtd"
   xmlns:inkscape="http://www.inkscape.org/namespaces/inkscape"
   inkscape:version="1.0 (4035a4fb49, 2020-05-01)"
   sodipodi:docname="logo.svg"
   id="svg7"
   version="1.1"
   viewBox="0 0 220 90.841487"
   height="220"
   width="220">
  <metadata
     id="metadata13">
    <rdf:RDF>
      <cc:Work
         rdf:about="">
        <dc:format>image/svg+xml</dc:format>
        <dc:type
           rdf:resource="http://purl.org/dc/dcmitype/StillImage" />
        <dc:title></dc:title>
      </cc:Work>
    </rdf:RDF>
  </metadata>
  <defs
     id="defs11" />
  <sodipodi:namedview
     inkscape:current-layer="svg7"
     inkscape:window-maximized="1"
     inkscape:window-y="-8"
     inkscape:window-x="2552"
     inkscape:cy="111.21765"
     inkscape:cx="275.5"
     inkscape:zoom="1.6634051"
     showgrid="false"
     id="namedview9"
     inkscape:window-height="1017"
     inkscape:window-width="1920"
     inkscape:pageshadow="2"
     inkscape:pageopacity="0"
     guidetolerance="10"
     gridtolerance="10"
     objecttolerance="10"
     borderopacity="1"
     bordercolor="#666666"
     pagecolor="#ffffff" />
  <g
     transform="translate(15.029412,-58.314123)"
     fill-rule="nonzero"
     fill="#004e98"
     stroke-width="1"
     stroke="none"
     id="logo-white">
    <path
       id="Path"
       d="M 29.3,65.4 85.2,33.9 C 85.1,33.3 85,32.7 85,32.1 c 0,-6.8 5.5,-12.2 12.2,-12.2 3.2,0 6.1,1.3 8.3,3.3 l 0.3,0.3 c 2.2,2.2 3.6,5.3 3.6,8.6 0,6.8 -5.5,12.2 -12.2,12.2 -2.7,0 -5.1,-0.9 -7.2,-2.3 0.1,0 0,0 0,-0.1 l -51.4,29 V 98.1 L 80.7,73.8 156.8,29.9 112.1,4.1 C 102.1,-0.7 90.5,-0.7 80.5,4.2 L 16.6,41 C 6.7,47.7 0.6,59 0.6,71.1 V 120 L 29.2,103.5 V 65.4 Z" />
    <path
       id="Shape"
       d="M 78.2,5.4 18.9,39.6 C 18.1,40 17.4,40.5 16.7,41 L 80.5,4.2 C 79.7,4.6 78.9,5 78.2,5.4 Z m 32.7,96.9 -65.8,37.9 c 0.1,0.5 0.1,0.9 0.1,1.4 0,0.8 -0.1,1.7 -0.2,2.5 -0.3,1.6 -1,3.1 -1.8,4.4 -2.2,3.3 -5.9,5.4 -10.1,5.4 -3.4,0 -6.4,-1.4 -8.6,-3.6 -2.2,-2.2 -3.6,-5.3 -3.6,-8.6 0,-6.8 5.5,-12.2 12.2,-12.2 2.9,0 5.5,1 7.6,2.7 L 71.4,114.5 V 90 L 0.7,130.7 v 8.9 c 0,13 6.9,25 18.2,31.5 l 7.2,4.2 84.8,-48.9 z" />
    <path
       id="path4"
       d="m 176.1,41.1 -10,-5.8 -85.5,49.3 V 109 l 30.3,-17.5 35.8,-21 c -0.1,-0.6 -0.2,-1.1 -0.2,-1.7 0,-0.8 0.1,-1.7 0.2,-2.5 0.2,-0.8 0.4,-1.6 0.7,-2.3 0.5,-1.1 1.1,-2 1.8,-2.9 0.7,-0.8 1.4,-1.6 2.3,-2.2 2,-1.5 4.5,-2.4 7.2,-2.4 3.4,0 6.4,1.4 8.6,3.6 2.2,2.2 3.6,5.3 3.6,8.6 0,2.7 -0.9,5.1 -2.4,7.2 -2.2,3.1 -5.8,5.1 -9.9,5.1 -2.8,0 -5.3,-1 -7.4,-2.5 l -24.8,14.5 0.1,0.1 -6.5,3.8 v 24 L 192,79.6 V 71.2 C 192,59.1 186,47.8 176.1,41.1 Z M 120.2,132 v 23.8 c 1.5,0.6 2.9,1.5 4,2.7 2.2,2.2 3.6,5.3 3.6,8.6 0,3.3 -1.4,6.4 -3.6,8.6 -2.2,2.2 -5.3,3.6 -8.6,3.6 -4.2,0 -7.9,-2.1 -10.1,-5.4 -1.3,-2 -2.1,-4.3 -2.1,-6.8 0,-2.5 0.8,-4.9 2.1,-6.8 1.3,-2 3.2,-3.5 5.5,-4.5 v -18.7 l -75.5,43.6 42.8,24.7 c 11.2,6.5 25.1,6.5 36.3,0 l 59.3,-34.2 c 11.2,-6.5 18.2,-18.5 18.2,-31.5 V 90.3 Z" />
  </g>
</svg>
