<svg xmlns="http://www.w3.org/2000/svg" viewBox="0 0 220 90.841" height="220" width="220"><g fill="#004e98"><path d="M44.33 7.086l55.9-31.5c-.1-.6-.2-1.2-.2-1.8 0-6.8 5.5-12.2 12.2-12.2 3.2 0 6.1 1.3 8.3 3.3l.3.3c2.2 2.2 3.6 5.3 3.6 8.6 0 6.8-5.5 12.2-12.2 12.2-2.7 0-5.1-.9-7.2-2.3.1 0 0 0 0-.1l-51.4 29v27.2l42.1-24.3 76.1-43.9-44.7-25.8c-10-4.8-21.6-4.8-31.6.1l-63.9 36.8c-9.9 6.7-16 18-16 30.1v48.9l28.6-16.5v-38.1z"/><path d="M93.23-52.914l-59.3 34.2c-.8.4-1.5.9-2.2 1.4l63.8-36.8c-.8.4-1.6.8-2.3 1.2zm32.7 96.9l-65.8 37.9c.1.5.1.9.1 1.4 0 .8-.1 1.7-.2 2.5-.3 1.6-1 3.1-1.8 4.4-2.2 3.3-5.9 5.4-10.1 5.4-3.4 0-6.4-1.4-8.6-3.6-2.2-2.2-3.6-5.3-3.6-8.6 0-6.8 5.5-12.2 12.2-12.2 2.9 0 5.5 1 7.6 2.7l30.7-17.7v-24.5l-70.7 40.7v8.9c0 13 6.9 25 18.2 31.5l7.2 4.2 84.8-48.9z"/><path d="M191.13-17.214l-10-5.8-85.5 49.3v24.4l30.3-17.5 35.8-21c-.1-.6-.2-1.1-.2-1.7 0-.8.1-1.7.2-2.5.2-.8.4-1.6.7-2.3.5-1.1 1.1-2 1.8-2.9.7-.8 1.4-1.6 2.3-2.2 2-1.5 4.5-2.4 7.2-2.4 3.4 0 6.4 1.4 8.6 3.6 2.2 2.2 3.6 5.3 3.6 8.6 0 2.7-.9 5.1-2.4 7.2-2.2 3.1-5.8 5.1-9.9 5.1-2.8 0-5.3-1-7.4-2.5l-24.8 14.5.1.1-6.5 3.8v24l72-41.3v-8.4c0-12.1-6-23.4-15.9-30.1zm-55.9 90.9v23.8c1.5.6 2.9 1.5 4 2.7 2.2 2.2 3.6 5.3 3.6 8.6s-1.4 6.4-3.6 8.6c-2.2 2.2-5.3 3.6-8.6 3.6-4.2 0-7.9-2.1-10.1-5.4-1.3-2-2.1-4.3-2.1-6.8s.8-4.9 2.1-6.8c1.3-2 3.2-3.5 5.5-4.5v-18.7l-75.5 43.6 42.8 24.7c11.2 6.5 25.1 6.5 36.3 0l59.3-34.2c11.2-6.5 18.2-18.5 18.2-31.5v-49.4z"/></g></svg>
